<?xml version="1.0" encoding="UTF-8"?>
<svg id="Layer_1" data-name="Layer 1" xmlns="http://www.w3.org/2000/svg" viewBox="0 0 550 620">
  <defs>
    <style>
      .cls-1 {
        fill: none;
        opacity: .2;
        stroke: #2c5364;
        stroke-miterlimit: 10;
        stroke-width: 5px;
      }
    </style>
  </defs>
  <polygon class="cls-1" points="55.5 -42 110.5 -10 110.5 54 55.5 86 .5 54 .5 -10 55.5 -42"/>
  <polygon class="cls-1" points="165.5 -42 220.5 -10 220.5 54 165.5 86 110.5 54 110.5 -10 165.5 -42"/>
  <polygon class="cls-1" points="275.5 -42 330.5 -10 330.5 54 275.5 86 220.5 54 220.5 -10 275.5 -42"/>
  <polygon class="cls-1" points="385.5 -42 440.5 -10 440.5 54 385.5 86 330.5 54 330.5 -10 385.5 -42"/>
  <polygon class="cls-1" points="495.5 -42 550.5 -10 550.5 54 495.5 86 440.5 54 440.5 -10 495.5 -42"/>
  <polygon class="cls-1" points="55.5 150 110.5 182 110.5 246 55.5 278 .5 246 .5 182 55.5 150"/>
  <polygon class="cls-1" points="110.5 54 165.5 86 165.5 150 110.5 182 55.5 150 55.5 86 110.5 54"/>
  <polygon class="cls-1" points="165.5 150 220.5 182 220.5 246 165.5 278 110.5 246 110.5 182 165.5 150"/>
  <polygon class="cls-1" points="220.5 54 275.5 86 275.5 150 220.5 182 165.5 150 165.5 86 220.5 54"/>
  <polygon class="cls-1" points="275.5 150 330.5 182 330.5 246 275.5 278 220.5 246 220.5 182 275.5 150"/>
  <polygon class="cls-1" points="330.5 54 385.5 86 385.5 150 330.5 182 275.5 150 275.5 86 330.5 54"/>
  <polygon class="cls-1" points="385.5 150 440.5 182 440.5 246 385.5 278 330.5 246 330.5 182 385.5 150"/>
  <polygon class="cls-1" points="440.5 54 495.5 86 495.5 150 440.5 182 385.5 150 385.5 86 440.5 54"/>
  <polygon class="cls-1" points="495.5 150 550.5 182 550.5 246 495.5 278 440.5 246 440.5 182 495.5 150"/>
  <polygon class="cls-1" points="55.5 342 110.5 374 110.5 438 55.5 470 .5 438 .5 374 55.5 342"/>
  <polygon class="cls-1" points="110.5 246 165.5 278 165.5 342 110.5 374 55.5 342 55.5 278 110.5 246"/>
  <polygon class="cls-1" points="165.5 342 220.5 374 220.5 438 165.5 470 110.5 438 110.5 374 165.5 342"/>
  <polygon class="cls-1" points="220.5 246 275.5 278 275.5 342 220.5 374 165.5 342 165.5 278 220.5 246"/>
  <polygon class="cls-1" points="275.5 342 330.5 374 330.5 438 275.5 470 220.5 438 220.5 374 275.5 342"/>
  <polygon class="cls-1" points="330.5 246 385.5 278 385.5 342 330.5 374 275.5 342 275.5 278 330.5 246"/>
  <polygon class="cls-1" points="385.5 342 440.5 374 440.5 438 385.5 470 330.5 438 330.5 374 385.5 342"/>
  <polygon class="cls-1" points="440.5 246 495.5 278 495.5 342 440.5 374 385.5 342 385.5 278 440.5 246"/>
  <polygon class="cls-1" points="495.5 342 550.5 374 550.5 438 495.5 470 440.5 438 440.5 374 495.5 342"/>
  <polygon class="cls-1" points="55.5 534 110.5 566 110.5 630 55.5 662 .5 630 .5 566 55.5 534"/>
  <polygon class="cls-1" points="110.5 438 165.5 470 165.5 534 110.5 566 55.5 534 55.5 470 110.5 438"/>
  <polygon class="cls-1" points="165.5 534 220.5 566 220.5 630 165.5 662 110.5 630 110.5 566 165.5 534"/>
  <polygon class="cls-1" points="220.5 438 275.5 470 275.5 534 220.5 566 165.5 534 165.5 470 220.5 438"/>
  <polygon class="cls-1" points="275.5 534 330.5 566 330.5 630 275.5 662 220.5 630 220.5 566 275.5 534"/>
  <polygon class="cls-1" points="330.5 438 385.5 470 385.5 534 330.5 566 275.5 534 275.5 470 330.5 438"/>
  <polygon class="cls-1" points="385.5 534 440.5 566 440.5 630 385.5 662 330.5 630 330.5 566 385.5 534"/>
  <polygon class="cls-1" points="440.5 438 495.5 470 495.5 534 440.5 566 385.5 534 385.5 470 440.5 438"/>
  <polygon class="cls-1" points="495.5 534 550.5 566 550.5 630 495.5 662 440.5 630 440.5 566 495.5 534"/>
</svg>